<?xml version="1.0" encoding="UTF-8"?>
<svg version="1.1" xmlns="http://www.w3.org/2000/svg" width="447" height="447">
<path d="M0 0 C147.51 0 295.02 0 447 0 C447 147.51 447 295.02 447 447 C299.49 447 151.98 447 0 447 C0 299.49 0 151.98 0 0 Z " fill="#FDFDFD" transform="translate(0,0)"/>
<path d="M0 0 C0.6997998 0.10924805 1.39959961 0.21849609 2.12060547 0.33105469 C6.55773469 1.17950951 9.17876989 2.66625306 12.4375 5.75 C16.79821902 15.315052 15.96281015 27.26591615 15.93847656 37.54077148 C15.93750739 40.41558102 15.97918911 43.28768496 16.0234375 46.16210938 C16.12777796 62.46583136 13.20033791 77.23152784 5.4375 91.75 C4.88835937 92.78447266 4.88835937 92.78447266 4.328125 93.83984375 C-4.87098411 109.74926191 -19.21779928 118.78218211 -36.4140625 123.8203125 C-38.4699219 124.42737768 -40.50919259 125.09470601 -42.5234375 125.828125 C-51.9030521 128.67335513 -62.94819154 127.83968828 -72.6875 127.875 C-73.55632812 127.87967285 -74.42515625 127.8843457 -75.3203125 127.88916016 C-76.6196875 127.88601807 -76.6196875 127.88601807 -77.9453125 127.8828125 C-78.79306747 127.88461014 -79.64082245 127.88640778 -80.51426697 127.88825989 C-83.5625 127.75 -83.5625 127.75 -86.67189026 127.15394592 C-92.90578506 126.11190143 -97.50853996 126.07868112 -102.99462986 129.53855228 C-106.16960784 131.83837456 -109.02397696 134.38152116 -111.83203125 137.11328125 C-112.43304972 137.69101099 -113.03406818 138.26874073 -113.65329933 138.86397743 C-124.92857069 150.19474929 -127.13976965 161.54573578 -127.19921875 177.16796875 C-127.16981821 184.67369745 -126.83595497 192.14962676 -126.41644287 199.64233398 C-126.13614072 205.19163817 -126.01608909 210.7444313 -125.88085938 216.29882812 C-125.59447227 227.12483302 -125.13618911 237.93566873 -124.5625 248.75 C-123.56690649 247.83304868 -122.58215142 246.90432034 -121.60209656 245.97077942 C-120.77780922 245.19694019 -120.77780922 245.19694019 -119.93686962 244.40746784 C-117.583987 241.56992893 -117.9417023 238.89331897 -118.08203125 235.32421875 C-118.09904083 234.62370895 -118.11605042 233.92319916 -118.13357544 233.20146179 C-118.17111501 231.71302712 -118.22127719 230.22486455 -118.28317261 228.73724365 C-118.43700451 224.8846465 -118.47810957 221.03094327 -118.5234375 217.17578125 C-118.53380539 216.42848755 -118.54417328 215.68119385 -118.55485535 214.91125488 C-118.73179427 197.5598558 -113.79456943 179.56835599 -101.5625 166.75 C-100.98113281 166.14027344 -100.39976562 165.53054688 -99.80078125 164.90234375 C-82.62319367 148.51701388 -59.90614196 147.27211551 -37.5625 147.75 C-36.53310303 147.76885254 -36.53310303 147.76885254 -35.48291016 147.78808594 C-19.88981752 148.15639712 -19.88981752 148.15639712 -13.5625 152.75 C-4.96261457 164.12404203 -7.2581204 187.08664718 -8.88330078 200.37255859 C-9.70049033 204.97682099 -11.04721382 209.32416414 -12.5625 213.75 C-13.07103516 215.53857422 -13.07103516 215.53857422 -13.58984375 217.36328125 C-17.66885046 230.64545613 -25.45333124 240.77866491 -37.5625 247.75 C-38.18253906 248.13414062 -38.80257812 248.51828125 -39.44140625 248.9140625 C-50.26586227 255.03934863 -64.0190382 257.24817914 -76.26171875 256.328125 C-89.45387831 255.61588785 -102.46243689 255.07073498 -113.47119141 263.40454102 C-123.24342064 272.51714917 -125.78470169 280.86638891 -126.31982422 293.81567383 C-126.46811518 301.48156725 -126.14735319 309.10787884 -125.5625 316.75 C-128.50051079 316.27380865 -131.43788814 315.79417738 -134.375 315.3125 C-135.62506836 315.11043945 -135.62506836 315.11043945 -136.90039062 314.90429688 C-137.70283203 314.77216797 -138.50527344 314.64003906 -139.33203125 314.50390625 C-140.07042236 314.38345947 -140.80881348 314.2630127 -141.56958008 314.13891602 C-143.5625 313.75 -143.5625 313.75 -146.5625 312.75 C-146.54829608 312.18183217 -146.53409216 311.61366434 -146.51945782 311.0282793 C-146.17872625 297.10168272 -145.95810816 283.17731269 -145.86559582 269.24679279 C-145.81805293 262.50874392 -145.72955775 255.77628044 -145.55102539 249.0402832 C-142.89423325 216.42917829 -142.89423325 216.42917829 -154.26411438 187.31300354 C-160.99069301 180.87496388 -168.59423718 176.37853543 -178.03125 175.8046875 C-181.07730535 175.88050942 -184.0437213 176.22979298 -187.0625 176.625 C-189.3468054 176.82209069 -191.63175293 176.9871114 -193.91889954 177.1474762 C-195.39448913 177.25116105 -196.86935656 177.36578192 -198.34318542 177.49205017 C-205.11597052 177.99998121 -211.0855535 176.7456118 -217.5625 174.75 C-218.64168701 174.43756348 -219.72087402 174.12512695 -220.83276367 173.80322266 C-235.31272314 169.506132 -246.99607291 160.88066117 -254.5625 147.75 C-255.11357422 146.81414062 -255.11357422 146.81414062 -255.67578125 145.859375 C-260.93605503 136.1918448 -263.29609595 125.67256613 -263.5625 114.75 C-263.5931958 113.49920654 -263.5931958 113.49920654 -263.62451172 112.22314453 C-264.30653786 79.75080889 -264.30653786 79.75080889 -259.375 72.9375 C-249.61906319 65.34954915 -233.38561524 67.48462237 -221.55371094 67.71289062 C-219.78863044 67.7457857 -218.02317976 67.75727811 -216.2578125 67.765625 C-202.15211868 68.26811791 -187.7471165 73.14493413 -176.5625 81.75 C-175.58796875 82.45576172 -175.58796875 82.45576172 -174.59375 83.17578125 C-165.50885219 90.24845388 -161.17025276 100.1024001 -157.5625 110.75 C-157.20800781 111.72453125 -156.85351562 112.6990625 -156.48828125 113.703125 C-154.78539893 119.30754782 -154.43534357 124.84827496 -154.4296875 130.6796875 C-154.42839844 131.97003906 -154.42710937 133.26039063 -154.42578125 134.58984375 C-154.42787598 135.2535498 -154.4299707 135.91725586 -154.43212891 136.60107422 C-154.43746824 138.61303306 -154.43217152 140.62476688 -154.42578125 142.63671875 C-154.43255046 149.4262407 -154.63101786 156.02262897 -155.5625 162.75 C-154.5725 163.08 -153.5825 163.41 -152.5625 163.75 C-151.20881404 165.06266518 -149.87450404 166.39567325 -148.5625 167.75 C-147.9025 168.08 -147.2425 168.41 -146.5625 168.75 C-146.56710896 168.15677602 -146.57171793 167.56355204 -146.57646656 166.95235157 C-146.68692006 152.51349632 -146.76964392 138.07467878 -146.82156086 123.63549519 C-146.84733539 116.6527571 -146.88247088 109.67030114 -146.93969727 102.68774414 C-146.99488307 95.95095624 -147.02391034 89.21452217 -147.03688622 82.47749901 C-147.04613498 79.90541148 -147.06419539 77.33334025 -147.09115028 74.76137733 C-147.12737149 71.16258506 -147.13244795 67.56500925 -147.13012695 63.96606445 C-147.14810333 62.89935516 -147.16607971 61.83264587 -147.18460083 60.73361206 C-147.13384359 53.47510354 -147.13384359 53.47510354 -144.08952332 49.61149597 C-143.25560562 48.9972023 -142.42168793 48.38290863 -141.5625 47.75 C-141.2325 47.42 -140.9025 47.09 -140.5625 46.75 C-135.32515181 46.40084345 -131.73748529 46.18898314 -127.5625 49.75 C-125.47981638 53.80170175 -125.31917479 57.22725426 -125.33544922 61.7434082 C-125.33515717 62.42688828 -125.33486511 63.11036835 -125.33456421 63.81455994 C-125.33595083 66.06009891 -125.35148013 68.30530067 -125.3671875 70.55078125 C-125.37092001 72.11305052 -125.37376586 73.67532215 -125.37576294 75.2375946 C-125.38338065 79.33935059 -125.40301304 83.4409638 -125.4251709 87.54266357 C-125.44566953 91.73219878 -125.45477323 95.92175717 -125.46484375 100.11132812 C-125.48626078 108.3242841 -125.52037412 116.53712426 -125.5625 124.75 C-123.58638966 123.04848563 -121.62178582 121.33704309 -119.67414856 119.60290527 C-118.0236847 118.15467509 -116.31593926 116.77166319 -114.58862305 115.41601562 C-111.55961279 111.43037976 -111.97018742 107.96235132 -112.14453125 103.09375 C-112.16225838 101.68567078 -112.16225838 101.68567078 -112.18034363 100.24914551 C-112.22147367 97.24847162 -112.29616944 94.24990074 -112.375 91.25 C-112.93962145 64.71062858 -111.05937903 40.31365755 -91.890625 20.00390625 C-68.43357349 -2.70535335 -30.86360279 -5.0170729 0 0 Z " fill="#050505" transform="translate(390.5625,121.25)"/>
<path d="M0 0 C1.11246094 0.32709961 2.22492188 0.65419922 3.37109375 0.99121094 C23.10176464 6.92676359 41.03898097 14.29276004 58 26 C59.43085937 26.97066406 59.43085937 26.97066406 60.890625 27.9609375 C67.15155155 32.34358608 72.73307035 37.2509629 78.28515625 42.4765625 C80.37104094 44.41538482 82.46642817 46.22519434 84.6875 48 C89.46199918 52.04794496 93.158752 57.09139391 97 62 C97.44907715 62.56831543 97.8981543 63.13663086 98.36083984 63.72216797 C99.74652895 65.47685898 101.12474342 67.2371238 102.5 69 C103.15029175 69.82769897 103.15029175 69.82769897 103.8137207 70.67211914 C105.70143738 73.11854241 107.01404049 75.04212147 108 78 C107.01902344 77.93941406 106.03804688 77.87882812 105.02734375 77.81640625 C104.38265137 77.77757324 103.73795898 77.73874023 103.07373047 77.69873047 C101.63073046 77.6067083 100.188307 77.5052294 98.74658203 77.39501953 C95.12705092 77.1294454 91.72457 77.01678445 88.08984375 77.23828125 C79.11502049 77.56858495 79.11502049 77.56858495 75.13085938 74.61376953 C71.22770478 70.98342705 67.85673735 66.9116372 64.49267578 62.78662109 C43.44927555 37.59924738 5.64381541 22.06540752 -26 18 C-31.78440757 17.54142329 -37.57742407 17.61122027 -43.375 17.6875 C-44.14102539 17.6934317 -44.90705078 17.6993634 -45.69628906 17.70547485 C-89.01392024 18.04572771 -127.5842928 31.78597722 -160 61 C-160.68964844 61.61617188 -161.37929687 62.23234375 -162.08984375 62.8671875 C-175.11600455 75.18840312 -184.24899751 91.5089814 -190.875 108 C-191.13692139 108.63768311 -191.39884277 109.27536621 -191.66870117 109.93237305 C-197.25084571 124.64079561 -198.57303541 139.41060423 -198.5625 155 C-198.58203352 168.71773982 -198.84356423 179.73047342 -206.375 191.625 C-211.33663195 199.74428942 -215.87877724 208.05537506 -220.35693359 216.44970703 C-223.33813886 222.01493359 -226.43342868 227.43532623 -229.84619141 232.74902344 C-231.75820066 236.47918115 -231.91628414 239.9490596 -231 244 C-228.3566099 248.95635644 -224.05336914 250.99379353 -219 253 C-217.783125 253.309375 -216.56625 253.61875 -215.3125 253.9375 C-211.40277374 255.19156314 -209.66866189 256.93888783 -207 260 C-206.67 260.33 -206.34 260.66 -206 261 C-205.82169835 262.93208837 -205.73206583 264.87271372 -205.6875 266.8125 C-205.63142578 268.39998047 -205.63142578 268.39998047 -205.57421875 270.01953125 C-206 273 -206 273 -208.01953125 275.01171875 C-210.27015698 276.88576442 -210.27015698 276.88576442 -210.4765625 279.90234375 C-209.75042989 284.62220569 -207.12641805 287.54765378 -204.3359375 291.31640625 C-203 294 -203 294 -203.7578125 296.6015625 C-204.16773438 297.39304687 -204.57765625 298.18453125 -205 299 C-205.71511931 304.30951022 -205.71511931 304.30951022 -203.7265625 309.08203125 C-202.69244995 310.40115531 -201.62105176 311.69224609 -200.5078125 312.9453125 C-196.62475218 318.23673666 -196.71520062 323.84662972 -196.8125 330.125 C-196.81314453 330.92292969 -196.81378906 331.72085937 -196.81445312 332.54296875 C-196.84218314 336.23414183 -197.06067487 339.42242758 -198 343 C-198.46701578 347.20314201 -198.30461183 349.42462209 -196.3125 353.1875 C-190.10648563 359.54695978 -180.63279227 360.19551804 -172.23950195 360.4206543 C-160.0901542 360.49369647 -147.71565484 359.48162992 -135.90771484 356.46557617 C-128.89497502 354.75412303 -121.30535557 355.50182328 -115 359 C-107.93985919 363.81373237 -106.81048984 373.18683035 -105.11328125 381.078125 C-104.27788074 384.90842621 -103.29897005 388.68495478 -102.2734375 392.46875 C-101.9640625 393.61730469 -101.6546875 394.76585937 -101.3359375 395.94921875 C-100.69477634 398.31838743 -100.04632051 400.68559389 -99.390625 403.05078125 C-97.65183403 409.56028862 -96.438105 415.25726005 -97 422 C-98.6694948 424.86199108 -99.78008024 426.45313942 -102.8125 427.8125 C-103.534375 427.874375 -104.25625 427.93625 -105 428 C-106.134375 428.12375 -107.26875 428.2475 -108.4375 428.375 C-113.08199416 427.88610588 -114.06650219 426.56916747 -117 423 C-118.02887879 420.35921111 -118.81443525 417.97166396 -119.5 415.25 C-119.91208397 413.73158709 -120.32486491 412.21336319 -120.73828125 410.6953125 C-120.94404785 409.91961914 -121.14981445 409.14392578 -121.36181641 408.34472656 C-122.18871048 405.30666584 -123.10839023 402.30063703 -124.02856445 399.28979492 C-126.17001532 392.25450598 -127.94449101 385.29403972 -129 378 C-129.680625 378.19335938 -130.36125 378.38671875 -131.0625 378.5859375 C-144.21024338 382.11764516 -156.88017925 383.17864568 -170.4375 383.25 C-172.08999756 383.26389771 -172.08999756 383.26389771 -173.77587891 383.27807617 C-189.44794392 383.2174791 -203.04474921 378.38219147 -215 368 C-220.88640556 361.57846666 -223.60111776 355.19580405 -223.50390625 346.5546875 C-223.51332748 345.7811795 -223.52274872 345.00767151 -223.53245544 344.21072388 C-223.56086944 341.76520649 -223.564192 339.32066822 -223.5625 336.875 C-223.56612035 334.42233518 -223.57575953 331.97037198 -223.60325623 329.51785278 C-223.61990978 327.99977421 -223.62302724 326.48146449 -223.61024475 324.96334839 C-223.65741666 320.20412675 -224.63725601 317.10067924 -227 313 C-228.49014015 308.92172169 -229.06024194 305.60050784 -228.875 301.3125 C-228.72900976 295.98385634 -230.30326524 291.79286706 -232.10546875 286.83203125 C-233.80317966 281.45718231 -233.36283134 276.45132534 -232 271 C-233.051875 270.6596875 -233.051875 270.6596875 -234.125 270.3125 C-242.94012037 266.28820592 -247.47152993 258.413303 -250.875 249.625 C-254.16563181 238.3935022 -251.68972205 227.09355765 -246.38671875 216.8984375 C-244.6396526 213.90014659 -242.82534285 210.95110496 -241 208 C-239.57374769 205.45824309 -238.19338596 202.89477173 -236.8125 200.328125 C-235.31321243 197.57512282 -233.78866144 194.84039537 -232.25 192.109375 C-231.51088379 190.78873047 -231.51088379 190.78873047 -230.75683594 189.44140625 C-229.77092165 187.68043426 -228.77959113 185.922481 -227.78222656 184.16796875 C-222.38357852 174.484499 -221.85185014 166.91440908 -222.125 155.9375 C-222.37726875 139.9942121 -220.78605682 124.94464951 -215 110 C-214.70408063 108.65109311 -214.43072458 107.29689687 -214.1875 105.9375 C-209.29286565 82.84587825 -194.83765426 62.83105552 -179 46 C-178.04480469 44.93072266 -178.04480469 44.93072266 -177.0703125 43.83984375 C-165.67674359 31.62611521 -150.7524352 22.59539664 -136 15 C-134.66195312 14.30003906 -134.66195312 14.30003906 -133.296875 13.5859375 C-123.96637891 9.03805419 -113.87017996 6.1353262 -104 3 C-102.17082031 2.40832031 -102.17082031 2.40832031 -100.3046875 1.8046875 C-96.88992934 0.75968922 -93.46617778 -0.1408304 -90 -1 C-89.32775391 -1.18191895 -88.65550781 -1.36383789 -87.96289062 -1.55126953 C-60.71575146 -8.71423967 -26.91307379 -8.00477788 0 0 Z " fill="#030303" transform="translate(292,12)"/>
<path d="M0 0 C0.99936584 -0.00537781 0.99936584 -0.00537781 2.0189209 -0.01086426 C15.35627657 -0.04943287 15.35627657 -0.04943287 20.4375 2.3125 C22.97749084 7.24684497 21.70383611 14.73579079 21.73266602 20.26171875 C21.74406087 21.77418466 21.76430838 23.28661449 21.79418945 24.79882812 C22.15052007 42.87414643 18.94759398 60.32960366 6.375 74.1875 C-7.53925228 86.99707347 -25.54276207 89.63424771 -43.6875 89.8125 C-44.95730713 89.83111084 -46.22711426 89.84972168 -47.53540039 89.86889648 C-59.13053855 89.78922874 -59.13053855 89.78922874 -63.5625 85.3125 C-67.54835384 78.59412593 -67.11018605 72.0942264 -67.0625 64.5 C-67.06173462 63.80574921 -67.06096924 63.11149841 -67.06018066 62.39620972 C-67.01617199 51.3648604 -65.89941382 41.53611817 -61.5625 31.3125 C-61.22863281 30.48492187 -60.89476562 29.65734375 -60.55078125 28.8046875 C-59.67360111 26.85786575 -58.70699129 25.11277645 -57.5625 23.3125 C-56.97082031 22.33990234 -56.97082031 22.33990234 -56.3671875 21.34765625 C-50.31419464 12.33734401 -40.85349587 6.37318412 -30.5625 3.3125 C-29.12390625 2.86583984 -29.12390625 2.86583984 -27.65625 2.41015625 C-18.50949668 0.09141154 -9.37900285 0.02072646 0 0 Z " fill="#FCFCFC" transform="translate(364.5625,139.6875)"/>
<path d="M0 0 C2.19937657 -0.00959065 4.39777155 -0.04054112 6.59692383 -0.07226562 C14.42064349 -0.13211192 21.45879464 0.26061223 28.80200195 3.24023438 C29.90930664 3.67722656 31.01661133 4.11421875 32.1574707 4.56445312 C43.38825125 9.97071852 48.50610852 16.74548523 52.64575195 28.36523438 C54.43642948 33.93623112 54.75849707 39.41783035 54.80200195 45.24023438 C54.85098633 46.30628906 54.8999707 47.37234375 54.95043945 48.47070312 C55.14572315 54.51698675 55.04720002 59.04791747 51.80200195 64.24023438 C44.28761445 70.18912448 36.90160691 69.91541077 27.6965332 68.89648438 C14.48710499 66.84586162 3.62063467 63.53548698 -5.3034668 53.11523438 C-10.94108493 44.56000355 -14.3211359 33.72773112 -14.33081055 23.54101562 C-14.33209961 22.25001953 -14.33338867 20.95902344 -14.3347168 19.62890625 C-14.33262207 18.96044678 -14.33052734 18.2919873 -14.32836914 17.60327148 C-14.3229889 15.54924222 -14.32834013 13.49542899 -14.3347168 11.44140625 C-14.33342773 10.15427734 -14.33213867 8.86714844 -14.33081055 7.54101562 C-14.32968262 6.35677002 -14.32855469 5.17252441 -14.32739258 3.95239258 C-14.02194965 -2.44980645 -5.02605026 0.01324533 0 0 Z " fill="#FBFBFB" transform="translate(161.197998046875,209.759765625)"/>
<path d="M0 0 C1.48696545 0.01509033 2.9739459 0.02877096 4.4609375 0.04101562 C8.05761014 0.07363961 11.65370473 0.1251753 15.25 0.1875 C15.32517053 4.5250321 15.37907363 8.86220103 15.41479492 13.20019531 C15.42971429 14.67031473 15.45005727 16.140391 15.47631836 17.61035156 C15.73803653 32.65658041 14.09821555 45.59540792 3.484375 57.1015625 C-0.22574819 60.49415263 -3.99893476 62.46728672 -8.75 64.1875 C-9.48605469 64.45433594 -10.22210938 64.72117187 -10.98046875 64.99609375 C-18.28326737 67.55268489 -25.04585002 68.36864344 -32.75 68.375 C-33.53117187 68.38724609 -34.31234375 68.39949219 -35.1171875 68.41210938 C-39.70495295 68.42369464 -43.48196126 68.07938404 -47.75 66.1875 C-53.15295021 60.34647275 -52.93253734 56.26253097 -52.9375 48.625 C-52.94974609 47.66013672 -52.96199219 46.69527344 -52.97460938 45.70117188 C-52.98699016 39.58919001 -52.39303723 34.07548911 -50.75 28.1875 C-50.50121094 27.29160156 -50.25242187 26.39570313 -49.99609375 25.47265625 C-46.66770155 16.32359749 -40.20029803 8.43213183 -31.28735352 4.23828125 C-21.04152445 -0.0047716 -10.88553425 -0.1944719 0 0 Z " fill="#FCFCFC" transform="translate(345.75,289.8125)"/>
</svg>
